<svg width="12" height="14" viewBox="0 0 12 14" fill="none" xmlns="http://www.w3.org/2000/svg">
<g clip-path="url(#clip0_287_1691)">
<path d="M7.0875 1.93129L11.8018 6.52504C11.929 6.64894 12.001 6.82063 12.001 7.00028C12.001 7.17993 11.929 7.35137 11.8018 7.47551L7.0875 12.0693C6.83052 12.3188 6.42375 12.3094 6.17839 12.047C5.93314 11.7873 5.94236 11.3703 6.20016 11.119L9.75462 7.65728H0.643125C0.288214 7.65728 0 7.36306 0 7.00076C0 6.63845 0.288214 6.34478 0.643125 6.34478H9.75295L6.19848 2.88306C5.94107 2.63129 5.93304 2.2143 6.17679 1.95371C6.42321 1.69121 6.80625 1.68192 7.0875 1.93129Z" fill="white"/>
</g>
<defs>
<clipPath id="clip0_287_1691">
<rect width="12" height="14" fill="white"/>
</clipPath>
</defs>
</svg>
