<svg width="35" height="40" viewBox="0 0 35 40" fill="none" xmlns="http://www.w3.org/2000/svg">
<g clip-path="url(#clip0_287_1833)">
<path d="M5.625 27.5C5.625 26.4609 6.46484 25.625 7.5 25.625C8.53906 25.625 9.375 26.4609 9.375 27.5C9.375 28.5391 8.53906 29.375 7.5 29.375C6.46484 29.375 5.625 28.5391 5.625 27.5ZM29.375 27.5C29.375 28.5391 28.5391 29.375 27.5 29.375C26.4609 29.375 25.625 28.5391 25.625 27.5C25.625 26.4609 26.4609 25.625 27.5 25.625C28.5391 25.625 29.375 26.4609 29.375 27.5ZM34.3906 5.48438C34.8594 6.10469 35 6.825 35 7.43359V30C35 31.8516 33.9922 33.4688 32.5 34.3281V38.75C32.5 39.4375 31.9375 40 31.25 40C30.5625 40 30 39.4375 30 38.75V35H5V38.75C5 39.4375 4.44063 40 3.75 40C3.05938 40 2.5 39.4375 2.5 38.75V34.3281C1.00547 33.4688 0 31.8516 0 30V7.43359C0 6.82969 0.139688 6.08672 0.64875 5.45937C2.53906 3.12969 7.82812 0 17.5 0C27.8594 0 32.5938 3.12109 34.3906 5.48438ZM2.5 7.43359V7.5H32.5V7.43359C32.5 7.1875 32.4375 7.05469 32.3984 6.99453C31.2422 5.47813 27.4062 2.5 17.5 2.5C8.28906 2.5 3.84688 5.48594 2.58984 7.03516C2.56016 7.07109 2.5 7.18281 2.5 7.43359ZM2.5 10V20H32.5V10H2.5ZM32.5 22.5H2.5V30C2.5 31.3828 3.61953 32.5 5 32.5H30C31.3828 32.5 32.5 31.3828 32.5 30V22.5Z" fill="white"/>
</g>
<defs>
<clipPath id="clip0_287_1833">
<rect width="35" height="40" fill="white"/>
</clipPath>
</defs>
</svg>
