<svg width="12" height="11" viewBox="0 0 12 11" fill="none" xmlns="http://www.w3.org/2000/svg">
<path d="M4.20097 0.528977C4.04852 0.129385 3.64661 -0.083301 3.26253 0.0305612L1.52027 0.546164C1.17578 0.649284 0.936218 0.988722 0.936218 1.37542C0.936218 6.69042 4.90777 11 9.80588 11C10.1623 11 10.4751 10.7401 10.5701 10.3662L11.0453 8.4757C11.1502 8.05892 10.9542 7.62281 10.5859 7.45738L8.6853 6.59805C8.36258 6.45196 7.98839 6.55293 7.76863 6.84725L6.96878 7.90639C5.57497 7.19099 4.44647 5.96643 3.78718 4.454L4.76324 3.58822C5.03448 3.3476 5.12753 2.94371 4.9929 2.59353L4.20097 0.531125V0.528977Z" fill="#333333"/>
</svg>
