<svg width="40" height="40" viewBox="0 0 40 40" fill="none" xmlns="http://www.w3.org/2000/svg">
<path d="M5 6.25C5 5.55937 5.55937 5 6.25 5H13.75C14.4375 5 15 5.55937 15 6.25C15 6.94062 14.4375 7.5 13.75 7.5H6.25C5.55937 7.5 5 6.94062 5 6.25ZM25 6.25C25 5.55937 25.5625 5 26.25 5H33.75C34.4375 5 35 5.55937 35 6.25C35 6.94062 34.4375 7.5 33.75 7.5H26.25C25.5625 7.5 25 6.94062 25 6.25ZM28.75 16.25C29.4375 16.25 30 16.8125 30 17.5V20H32.5C33.1875 20 33.75 20.5625 33.75 21.25C33.75 21.9375 33.1875 22.5 32.5 22.5H30V25C30 25.6875 29.4375 26.25 28.75 26.25C28.0625 26.25 27.5 25.6875 27.5 25V22.5H25C24.3125 22.5 23.75 21.9375 23.75 21.25C23.75 20.5625 24.3125 20 25 20H27.5V17.5C27.5 16.8125 28.0625 16.25 28.75 16.25ZM15 20C15.6875 20 16.25 20.5625 16.25 21.25C16.25 21.9375 15.6875 22.5 15 22.5H7.5C6.80937 22.5 6.25 21.9375 6.25 21.25C6.25 20.5625 6.80937 20 7.5 20H15ZM0 15C0 12.2422 2.23828 10 5 10H35C37.7578 10 40 12.2422 40 15V30C40 32.7578 37.7578 35 35 35H5C2.23828 35 0 32.7578 0 30V15ZM2.5 15V30C2.5 31.3828 3.61953 32.5 5 32.5H35C36.3828 32.5 37.5 31.3828 37.5 30V15C37.5 13.6172 36.3828 12.5 35 12.5H5C3.61953 12.5 2.5 13.6172 2.5 15Z" fill="white"/>
</svg>
