<svg width="40" height="40" viewBox="0 0 40 40" fill="none" xmlns="http://www.w3.org/2000/svg">
<path d="M6.25 23.125C6.25 22.0859 7.08984 21.25 8.125 21.25C9.16406 21.25 10 22.0859 10 23.125C10 24.1641 9.16406 25 8.125 25C7.08984 25 6.25 24.1641 6.25 23.125ZM33.75 23.125C33.75 24.1641 32.9141 25 31.875 25C30.8359 25 30 24.1641 30 23.125C30 22.0859 30.8359 21.25 31.875 21.25C32.9141 21.25 33.75 22.0859 33.75 23.125ZM3.77266 15.9922L6.48359 6.95391C7.27656 4.31016 9.71094 2.5 12.4688 2.5H27.5312C30.2891 2.5 32.7266 4.31016 33.5156 6.95391L36.2266 15.9922C38.4844 17.2812 40 19.7109 40 22.5V36.25C40 36.9375 39.4375 37.5 38.75 37.5C38.0625 37.5 37.5 36.9375 37.5 36.25V32.5H2.5V36.25C2.5 36.9375 1.94062 37.5 1.25 37.5C0.559687 37.5 0 36.9375 0 36.25V22.5C0 19.7109 1.51875 17.2812 3.77266 15.9922ZM6.66641 15.0469C6.93984 15.0156 7.21797 15 7.5 15H32.5C32.7812 15 33.0625 15.0156 33.3359 15.0469L31.125 7.67266C30.6484 6.08594 29.1875 5 27.5312 5H12.4688C10.8125 5 9.35156 6.08594 8.875 7.67266L6.66641 15.0469ZM2.5 22.5V30H37.5V22.5C37.5 20.3359 36.125 18.4922 34.1953 17.7969L34.1641 17.8047L34.1562 17.7812C33.6328 17.6016 33.0781 17.5 32.5 17.5H7.5C6.92031 17.5 6.36406 17.6016 5.84609 17.7812L5.83828 17.8047L5.80234 17.7969C3.87656 18.4922 2.5 20.3359 2.5 22.5Z" fill="white"/>
</svg>
