<svg width="50" height="40" viewBox="0 0 50 40" fill="none" xmlns="http://www.w3.org/2000/svg">
<g clip-path="url(#clip0_287_1839)">
<path d="M8.05467 13.75C8.05467 11.3359 10.0859 9.375 12.4297 9.375C14.914 9.375 16.8047 11.3359 16.8047 13.75C16.8047 16.1641 14.914 18.125 12.4297 18.125C10.0859 18.125 8.05467 16.1641 8.05467 13.75ZM12.4297 11.875C11.4609 11.875 10.5547 12.7109 10.5547 13.75C10.5547 14.7891 11.4609 15.625 12.4297 15.625C13.539 15.625 14.3047 14.7891 14.3047 13.75C14.3047 12.7109 13.539 11.875 12.4297 11.875ZM16.7109 3.99688C17.4531 4.32031 18.1562 4.72656 18.7969 5.20391L20.9141 4.57188C21.3437 4.44141 21.8203 4.55469 22.1328 4.89219C23.3984 6.28437 24.3672 7.95312 24.9453 9.79688C25.0859 10.2266 24.9453 10.6953 24.6172 11.0078L22.9766 12.5C23.1016 12.9297 23.0547 13.3672 23.0547 13.8125C23.0547 14.1484 23.1016 14.6172 23.0625 15.0078L24.6172 16.4922C24.9453 16.8047 25.0859 17.2734 24.9453 17.7031C24.3672 19.5469 23.3984 21.2188 22.1328 22.6094C21.8203 22.9453 21.3437 23.0625 20.9141 22.9297L18.914 22.3281C18.2265 22.8516 17.4765 23.2891 16.6797 23.6406L16.1953 25.6719C16.0234 26.1172 15.7578 26.4688 15.3125 26.5703C14.4062 26.7656 13.4687 26.875 12.4297 26.875C11.5312 26.875 10.5937 26.7656 9.61717 26.5703C9.24217 26.4688 8.90624 26.1172 8.80467 25.6719L8.3203 23.6406C7.5203 23.2891 6.77108 22.8516 6.08671 22.3281L4.08905 22.9297C3.65233 23.0625 3.17577 22.9453 2.86952 22.6094C1.60155 21.2188 0.629283 19.5469 0.050869 17.7031C-0.0842326 17.2734 0.054119 16.8047 0.381158 16.4922L1.94139 15.0078C1.89764 14.6172 1.87499 14.1484 1.87499 13.8125C1.87499 13.3672 1.90155 12.9297 1.95389 12.5L0.381158 11.0078C0.0541737 10.6953 -0.0841544 10.2266 0.0509237 9.79688C0.629361 7.95312 1.60233 6.28437 2.86952 4.89219C3.17577 4.55469 3.65233 4.44141 4.08905 4.57188L6.20155 5.20391C6.8453 4.72656 7.54452 4.32031 8.28905 3.99766L8.80467 1.825C8.90624 1.38359 9.24217 1.02891 9.61717 0.930469C10.5937 0.730469 11.5312 0.625 12.4297 0.625C13.4687 0.625 14.4062 0.730469 15.3125 0.930469C15.7578 1.02812 16.0234 1.38359 16.1953 1.825L16.7109 3.99688ZM4.5867 11.5547L4.43592 12.8047C4.3953 13.1328 4.30467 13.4688 4.30467 13.8125C4.30467 14.125 4.39217 14.4297 4.42577 14.7344L4.56249 15.9688L2.71249 17.7266C3.08358 18.6562 3.58124 19.5156 4.18358 20.2891L6.58983 19.5703L7.60233 20.3438C8.12499 20.7422 8.70311 21.0781 9.31249 21.3438L10.4609 21.8359L11.039 24.2734C11.5156 24.3438 12 24.375 12.4297 24.375C12.9922 24.375 13.4844 24.3438 13.9609 24.2734L14.539 21.8359L15.6875 21.3438C16.2969 21.0781 16.8047 20.7422 17.3984 20.3438L18.414 19.5703L20.8125 20.2891C21.4219 19.5156 21.914 18.6562 22.289 17.7266L20.4375 15.9688L20.5703 14.7344C20.6094 14.4297 20.5547 14.125 20.5547 13.8125C20.5547 13.4688 20.6016 13.1328 20.5625 12.8047L20.414 11.5547L22.289 9.77344C21.914 8.84375 21.4219 7.98438 20.8125 7.21016L18.3125 7.96094L17.3125 7.2125C16.8125 6.84688 16.2812 6.53672 15.7109 6.28984L14.5703 5.79141L13.9609 3.22578C13.4844 3.15937 12.9922 3.125 12.4297 3.125C12 3.125 11.5156 3.15937 11.039 3.22578L10.4297 5.79141L9.28124 6.28984C8.71874 6.53672 8.17967 6.84688 7.69061 7.2125L6.68436 7.96094L4.18358 7.21016C3.58124 7.98438 3.08358 8.84375 2.71249 9.77344L4.5867 11.5547ZM36.25 23.125C38.6641 23.125 40.625 25.0859 40.625 27.5C40.625 29.9141 38.6641 31.875 36.25 31.875C33.8359 31.875 31.875 29.9141 31.875 27.5C31.875 25.0859 33.8359 23.125 36.25 23.125ZM38.125 27.5C38.125 26.4609 37.2891 25.625 36.25 25.625C35.2109 25.625 34.375 26.4609 34.375 27.5C34.375 28.5391 35.2109 29.375 36.25 29.375C37.2891 29.375 38.125 28.5391 38.125 27.5ZM46 31.7109C45.6797 32.4531 45.2734 33.1562 44.7969 33.7969L45.4297 35.9141C45.5625 36.3438 45.4453 36.8203 45.1094 37.1328C43.7187 38.3984 42.0469 39.3672 40.2031 39.9453C39.7734 40.0859 39.3047 39.9453 38.9922 39.6172L37.4297 37.9766C37.0703 38.1016 36.6328 38.125 36.1875 38.125C35.7812 38.125 35.3828 38.1016 34.9922 38.0625L33.5078 39.6172C33.1953 39.9453 32.7265 40.0859 32.2969 39.9453C30.4531 39.3672 28.7812 38.3984 27.3906 37.1328C27.0547 36.8281 26.9453 36.3438 27.0703 35.9141L27.6719 33.9141C27.1484 33.2266 26.7109 32.4766 26.3594 31.6797L24.3281 31.1953C23.8828 31.0234 23.5312 30.7578 23.4297 30.3125C23.2344 29.4062 23.125 28.4688 23.125 27.5C23.125 26.5312 23.2344 25.5938 23.4297 24.6172C23.5312 24.2422 23.8828 23.9062 24.3281 23.8047L26.3594 23.3203C26.7109 22.5234 27.1484 21.7734 27.6719 21.0859L27.0703 19.0859C26.9453 18.6562 27.0547 18.1797 27.3906 17.8672C28.7812 16.6016 30.4531 15.6328 32.2969 15.0547C32.7265 14.9141 33.1953 15.0547 33.5078 15.3828L34.9922 16.9453C35.3828 16.8984 35.7812 16.875 36.1875 16.875C36.6328 16.875 37.0703 16.8984 37.4297 16.9531L38.9922 15.3828C39.3047 15.0547 39.7734 14.9141 40.2031 15.0547C42.0469 15.6328 43.7187 16.6016 45.1094 17.8672C45.4453 18.1797 45.5625 18.6562 45.4297 19.0859L44.7969 21.2031C45.2734 21.8438 45.6797 22.5469 46 23.2891L48.1719 23.8047C48.6172 23.9062 48.9687 24.2422 49.0703 24.6172C49.2734 25.5938 49.375 26.5312 49.375 27.5C49.375 28.4688 49.2734 29.4062 49.0703 30.3125C48.9687 30.7578 48.6172 31.0234 48.1719 31.1953L46 31.7109ZM38.4453 19.5859L37.1953 19.4375C36.8672 19.3984 36.5312 19.375 36.1875 19.375C35.875 19.375 35.5703 19.3906 35.2656 19.4297L34.0312 19.5625L32.2734 17.7109C31.3437 18.0859 30.4844 18.5781 29.7109 19.1875L30.4297 21.5938L29.6562 22.6016C29.2578 23.125 28.9219 23.7031 28.6562 24.3125L28.164 25.4609L25.7265 26.0391C25.6562 26.5156 25.625 27.0078 25.625 27.5C25.625 27.9922 25.6562 28.4844 25.7265 28.9609L28.164 29.5391L28.6562 30.6875C28.9219 31.2969 29.2578 31.8047 29.6562 32.3984L30.4297 33.4141L29.7109 35.8125C30.4844 36.4219 31.3437 36.9141 32.2734 37.2891L34.0312 35.4375L35.2656 35.5781C35.5703 35.6094 35.875 35.625 36.1875 35.625C36.5312 35.625 36.8672 35.6016 37.1953 35.5625L38.4453 35.4141L40.2265 37.2891C41.1562 36.9141 42.0156 36.4219 42.789 35.8125L42.039 33.3125L42.789 32.3125C43.1562 31.8203 43.4609 31.2812 43.7109 30.7109L44.2109 29.5703L46.7734 28.9609C46.8437 28.4844 46.875 27.9922 46.875 27.5C46.875 27.0078 46.8437 26.5156 46.7734 26.0391L44.2109 25.4297L43.7109 24.2891C43.4609 23.7188 43.1562 23.1875 42.789 22.6875L42.039 21.6875L42.789 19.1875C42.0156 18.5781 41.1562 18.0859 40.2265 17.7109L38.4453 19.5859Z" fill="white"/>
</g>
<defs>
<clipPath id="clip0_287_1839">
<rect width="50" height="40" fill="white"/>
</clipPath>
</defs>
</svg>
