<svg width="45" height="40" viewBox="0 0 45 40" fill="none" xmlns="http://www.w3.org/2000/svg">
<g clip-path="url(#clip0_287_1835)">
<path d="M18.1248 15C18.1248 13.6172 19.242 12.5 20.6248 12.5H24.3748C25.7576 12.5 26.8748 13.6172 26.8748 15V18.125H29.9998C31.3826 18.125 32.4998 19.2422 32.4998 20.625V24.375C32.4998 25.7578 31.3826 26.875 29.9998 26.875H26.8748V30C26.8748 31.3828 25.7576 32.5 24.3748 32.5H20.6248C19.242 32.5 18.1248 31.3828 18.1248 30V26.875H14.9998C13.617 26.875 12.4998 25.7578 12.4998 24.375V20.625C12.4998 19.2422 13.617 18.125 14.9998 18.125H18.1248V15ZM20.6248 15V20.625H14.9998V24.375H20.6248V30H24.3748V24.375H29.9998V20.625H24.3748V15H20.6248ZM21.6717 0.312656C22.1483 -0.104219 22.8514 -0.104219 23.328 0.312656L29.9998 6.20078V4.375C29.9998 3.33984 30.8358 2.42969 31.8748 2.42969H38.1248C39.1639 2.42969 39.9998 3.33984 39.9998 4.375V15.0234L44.578 19.0625C45.0936 19.5156 45.1405 20.2422 44.617 20.8281C44.2342 21.3438 43.4373 21.3906 42.9217 20.8672L39.9998 18.2891V33.75C39.9998 37.2031 37.203 40 33.7498 40H11.2498C7.79827 40 4.99983 37.2031 4.99983 33.75V18.2891L2.07718 20.8672C1.55921 21.3906 0.769287 21.3438 0.312568 20.8281C-0.144229 20.2422 -0.0948539 19.5156 0.422802 19.0625L21.6717 0.312656ZM37.4998 12.8203V5H32.4998V8.40625L37.4998 12.8203ZM7.49983 16.1484V33.75C7.49983 35.8203 9.17952 37.5 11.2498 37.5H33.7498C35.8201 37.5 37.4998 35.8203 37.4998 33.75V16.1484L22.4998 2.91719L7.49983 16.1484Z" fill="white"/>
<g clip-path="url(#clip1_287_1835)">
<path d="M83.1 205C83.1 174.1 109.1 149 139.1 149C170.9 149 195.1 174.1 195.1 205C195.1 235.9 170.9 261 139.1 261C109.1 261 83.1 235.9 83.1 205ZM139.1 181C126.7 181 115.1 191.7 115.1 205C115.1 218.3 126.7 229 139.1 229C153.3 229 163.1 218.3 163.1 205C163.1 191.7 153.3 181 139.1 181ZM193.9 80.16C203.4 84.3 212.4 89.5 220.6 95.61L247.7 87.52C253.2 85.85 259.3 87.3 263.3 91.62C279.5 109.44 291.9 130.8 299.3 154.4C301.1 159.9 299.3 165.9 295.1 169.9L274.1 189C275.7 194.5 275.1 200.1 275.1 205.8C275.1 210.1 275.7 216.1 275.2 221.1L295.1 240.1C299.3 244.1 301.1 250.1 299.3 255.6C291.9 279.2 279.5 300.6 263.3 318.4C259.3 322.7 253.2 324.2 247.7 322.5L222.1 314.8C213.3 321.5 203.7 327.1 193.5 331.6L187.3 357.6C185.1 363.3 181.7 367.8 176 369.1C164.4 371.6 152.4 373 139.1 373C127.6 373 115.6 371.6 103.1 369.1C98.3 367.8 94 363.3 92.7 357.6L86.5 331.6C76.26 327.1 66.67 321.5 57.91 314.8L32.34 322.5C26.75 324.2 20.65 322.7 16.73 318.4C0.500019 300.6 -11.945 279.2 -19.3487 255.6C-21.078 250.1 -19.3071 244.1 -15.121 240.1L4.85002 221.1C4.29002 216.1 4.00002 210.1 4.00002 205.8C4.00002 200.1 4.34002 194.5 5.01002 189L-15.121 169.9C-19.3064 165.9 -21.077 159.9 -19.348 154.4C-11.944 130.8 0.510019 109.44 16.73 91.62C20.65 87.3 26.75 85.85 32.34 87.52L59.38 95.61C67.62 89.5 76.57 84.3 86.1 80.17L92.7 52.36C94 46.71 98.3 42.17 103.1 40.91C115.6 38.35 127.6 37 139.1 37C152.4 37 164.4 38.35 176 40.91C181.7 42.16 185.1 46.71 187.3 52.36L193.9 80.16ZM38.71 176.9L36.78 192.9C36.26 197.1 35.1 201.4 35.1 205.8C35.1 209.8 36.22 213.7 36.65 217.6L38.4 233.4L14.72 255.9C19.47 267.8 25.84 278.8 33.55 288.7L64.35 279.5L77.31 289.4C84 294.5 91.4 298.8 99.2 302.2L113.9 308.5L121.3 339.7C127.4 340.6 133.6 341 139.1 341C146.3 341 152.6 340.6 158.7 339.7L166.1 308.5L180.8 302.2C188.6 298.8 195.1 294.5 202.7 289.4L215.7 279.5L246.4 288.7C254.2 278.8 260.5 267.8 265.3 255.9L241.6 233.4L243.3 217.6C243.8 213.7 243.1 209.8 243.1 205.8C243.1 201.4 243.7 197.1 243.2 192.9L241.3 176.9L265.3 154.1C260.5 142.2 254.2 131.2 246.4 121.29L214.4 130.9L201.6 121.32C195.2 116.64 188.4 112.67 181.1 109.51L166.5 103.13L158.7 70.29C152.6 69.44 146.3 69 139.1 69C133.6 69 127.4 69.44 121.3 70.29L113.5 103.13L98.8 109.51C91.6 112.67 84.7 116.64 78.44 121.32L65.56 130.9L33.55 121.29C25.84 131.2 19.47 142.2 14.72 154.1L38.71 176.9ZM444 325C474.9 325 500 350.1 500 381C500 411.9 474.9 437 444 437C413.1 437 388 411.9 388 381C388 350.1 413.1 325 444 325ZM468 381C468 367.7 457.3 357 444 357C430.7 357 420 367.7 420 381C420 394.3 430.7 405 444 405C457.3 405 468 394.3 468 381ZM568.8 434.9C564.7 444.4 559.5 453.4 553.4 461.6L561.5 488.7C563.2 494.2 561.7 500.3 557.4 504.3C539.6 520.5 518.2 532.9 494.6 540.3C489.1 542.1 483.1 540.3 479.1 536.1L459.1 515.1C454.5 516.7 448.9 517 443.2 517C438 517 432.9 516.7 427.9 516.2L408.9 536.1C404.9 540.3 398.9 542.1 393.4 540.3C369.8 532.9 348.4 520.5 330.6 504.3C326.3 500.4 324.9 494.2 326.5 488.7L334.2 463.1C327.5 454.3 321.9 444.7 317.4 434.5L291.4 428.3C285.7 426.1 281.2 422.7 279.9 417C277.4 405.4 276 393.4 276 381C276 368.6 277.4 356.6 279.9 344.1C281.2 339.3 285.7 335 291.4 333.7L317.4 327.5C321.9 317.3 327.5 307.7 334.2 298.9L326.5 273.3C324.9 267.8 326.3 261.7 330.6 257.7C348.4 241.5 369.8 229.1 393.4 221.7C398.9 219.9 404.9 221.7 408.9 225.9L427.9 245.9C432.9 245.3 438 245 443.2 245C448.9 245 454.5 245.3 459.1 246L479.1 225.9C483.1 221.7 489.1 219.9 494.6 221.7C518.2 229.1 539.6 241.5 557.4 257.7C561.7 261.7 563.2 267.8 561.5 273.3L553.4 300.4C559.5 308.6 564.7 317.6 568.8 327.1L596.6 333.7C602.3 335 606.8 339.3 608.1 344.1C610.7 356.6 612 368.6 612 381C612 393.4 610.7 405.4 608.1 417C606.8 422.7 602.3 426.1 596.6 428.3L568.8 434.9ZM472.1 279.7L456.1 277.8C451.9 277.3 447.6 277 443.2 277C439.2 277 435.3 277.2 431.4 277.7L415.6 279.4L393.1 255.7C381.2 260.5 370.2 266.8 360.3 274.6L369.5 305.4L359.6 318.3C354.5 325 350.2 332.4 346.8 340.2L340.5 354.9L309.3 362.3C308.4 368.4 308 374.7 308 381C308 387.3 308.4 393.6 309.3 399.7L340.5 407.1L346.8 421.8C350.2 429.6 354.5 436.1 359.6 443.7L369.5 456.7L360.3 487.4C370.2 495.2 381.2 501.5 393.1 506.3L415.6 482.6L431.4 484.4C435.3 484.8 439.2 485 443.2 485C447.6 485 451.9 484.7 456.1 484.2L472.1 482.3L494.9 506.3C506.8 501.5 517.8 495.2 527.7 487.4L518.1 455.4L527.7 442.6C532.4 436.3 536.3 429.4 539.5 422.1L545.9 407.5L578.7 399.7C579.6 393.6 580 387.3 580 381C580 374.7 579.6 368.4 578.7 362.3L545.9 354.5L539.5 339.9C536.3 332.6 532.4 325.8 527.7 319.4L518.1 306.6L527.7 274.6C517.8 266.8 506.8 260.5 494.9 255.7L472.1 279.7Z" fill="black"/>
</g>
</g>
<defs>
<clipPath id="clip0_287_1835">
<rect width="45" height="40" fill="white"/>
</clipPath>
<clipPath id="clip1_287_1835">
<rect width="640" height="512" fill="white" transform="translate(-20 29)"/>
</clipPath>
</defs>
</svg>
