<svg width="11" height="11" viewBox="0 0 11 11" fill="none" xmlns="http://www.w3.org/2000/svg">
<path d="M10.3151 0.120385C10.5151 0.270764 10.62 0.530705 10.5824 0.790646L9.3151 9.72745C9.28539 9.93583 9.16856 10.1184 8.99827 10.2216C8.82797 10.3247 8.62402 10.3376 8.44382 10.2559L5.94286 9.12808L5.14881 10.7285C5.04584 10.9369 4.82604 11.0422 4.61416 10.9842C4.40229 10.9262 4.25377 10.72 4.25377 10.4836V8.4213C4.25377 8.30745 4.28942 8.19573 4.35476 8.10551L7.62799 3.53828C7.67749 3.38576 7.49928 3.23108 7.37057 3.35783L3.82606 6.83588L3.1924 7.45673C3.01022 7.63504 2.75082 7.68445 2.5231 7.58133L0.839954 6.82084C0.618174 6.71987 0.467681 6.49216 0.45382 6.23007C0.439959 5.96798 0.56273 5.72093 0.772628 5.58988L9.6438 0.0903095C9.85568 -0.040735 10.1171 -0.0278454 10.3171 0.120385H10.3151Z" fill="white"/>
</svg>
