<svg width="30" height="40" viewBox="0 0 30 40" fill="none" xmlns="http://www.w3.org/2000/svg">
<path d="M15 30.625C13.9602 30.625 13.125 31.4602 13.125 32.5C13.125 33.5398 13.9602 34.375 15 34.375C16.0398 34.375 16.875 33.5398 16.875 32.5C16.875 31.4602 16.0391 30.625 15 30.625ZM22.5 0H7.5C4.73828 0 2.5 2.23828 2.5 5V35C2.5 37.7617 4.73828 40 7.5 40H22.5C25.2617 40 27.5 37.7617 27.5 35V5C27.5 2.23828 25.2578 0 22.5 0ZM25 35C25 36.3781 23.8781 37.5 22.5 37.5H7.5C6.12188 37.5 5 36.3781 5 35V5C5 3.62188 6.12188 2.5 7.5 2.5H22.5C23.8781 2.5 25 3.62188 25 5V35Z" fill="white"/>
</svg>
