<svg width="13" height="13" viewBox="0 0 13 13" fill="none" xmlns="http://www.w3.org/2000/svg">
<g clip-path="url(#clip0_293_2256)">
<path d="M6.5 0C2.90977 0 0 2.90977 0 6.5C0 10.0902 2.90977 13 6.5 13C10.0902 13 13 10.0902 13 6.5C13 2.90977 10.0902 0 6.5 0ZM6.5 12.1875C3.36426 12.1875 0.8125 9.63574 0.8125 6.5C0.8125 3.36426 3.36426 0.8125 6.5 0.8125C9.63574 0.8125 12.1875 3.36426 12.1875 6.5C12.1875 9.63574 9.63574 12.1875 6.5 12.1875ZM6.09375 8.73438C5.75732 8.73438 5.48438 9.00732 5.48438 9.34375C5.48438 9.68018 5.75732 9.95312 6.09375 9.95312C6.43018 9.95312 6.70312 9.68018 6.70312 9.34375C6.70312 9.00732 6.43145 8.73438 6.09375 8.73438ZM7.25156 3.25H5.74844C4.81914 3.25 4.0625 4.00664 4.0625 4.93594V5.17969C4.0625 5.40424 4.2442 5.58594 4.46875 5.58594C4.6933 5.58594 4.875 5.40312 4.875 5.17969V4.93594C4.875 4.45352 5.26602 4.0625 5.74844 4.0625H7.25283C7.73398 4.0625 8.125 4.45352 8.125 4.93594C8.125 5.25281 7.95283 5.54531 7.69184 5.69055L6.15723 6.45684C5.86777 6.61934 5.6875 6.92402 5.6875 7.25664V7.71875C5.6875 7.94219 5.87031 8.125 6.09375 8.125C6.31719 8.125 6.5 7.94219 6.5 7.71875V7.25664C6.5 7.21975 6.51984 7.18562 6.53651 7.1761L8.07036 6.4088C8.60488 6.11152 8.9375 5.54785 8.9375 4.93594C8.9375 4.00664 8.18086 3.25 7.25156 3.25Z" fill="white"/>
</g>
<defs>
<clipPath id="clip0_293_2256">
<rect width="13" height="13" fill="white"/>
</clipPath>
</defs>
</svg>
