<svg width="18" height="18" viewBox="0 0 18 18" fill="none" xmlns="http://www.w3.org/2000/svg">
<path d="M9 0C4.0275 0 0 4.0275 0 9C0 13.9725 4.0275 18 9 18C13.9725 18 18 13.9725 18 9C18 4.0275 13.9725 0 9 0ZM9 2.7C10.4895 2.7 11.7 3.9105 11.7 5.4C11.7 6.894 10.4895 8.1 9 8.1C7.5105 8.1 6.3 6.894 6.3 5.4C6.3 3.9105 7.5105 2.7 9 2.7ZM9 15.48C6.7455 15.48 4.7655 14.328 3.6 12.582C3.6225 10.7955 7.2045 9.81 9 9.81C10.7955 9.81 14.373 10.7955 14.4 12.582C13.2345 14.328 11.2545 15.48 9 15.48Z" fill="#51277F"/>
</svg>
